<?xml version="1.0" encoding="utf-8"?>
<svg x="0pt" y="0pt" width="2660.22pt" height="701.914pt" viewBox="0 0 2660.22 701.914" xmlns="http://www.w3.org/2000/svg" xmlns:xlink="http://www.w3.org/1999/xlink">
  <g id="1">
    <title>Layer 1</title>
    <g id="2">
      <title>Group</title>
      <g id="3">
        <title>Group</title>
        <g id="4">
          <title>Group</title>
          <defs>
            <title>Shape 2</title>
            <g id="5">
              <defs>
                <path id="6" d="M898.265,349.446 C909.529,356.519,918.109,365.164,924.003,375.38 C929.897,385.597,932.844,396.993,932.844,409.567 C932.844,439.169,921.58,461.83,899.051,477.548 C883.857,488.55,863.292,495.492,837.357,498.374 C836.833,498.374,836.31,498.374,835.786,498.374 C832.118,498.374,829.105,497.195,826.748,494.837 C823.604,491.956,822.032,488.55,822.032,484.621 C822.032,475.19,822.032,465.759,822.032,456.328 C822.032,452.923,823.211,449.91,825.569,447.29 C827.927,444.671,830.808,443.099,834.214,442.575 C846.526,441.265,856.088,438.384,862.899,433.93 C868.138,430.786,871.675,426.726,873.509,421.749 C874.557,418.867,875.081,415.199,875.081,410.746 C875.081,407.864,874.557,405.376,873.509,403.28 C872.461,401.184,870.627,399.219,868.007,397.386 C860.41,392.146,850.587,387.693,838.536,384.025 C836.44,383.37,834.345,382.716,832.249,382.061 C819.151,378.393,807.1,375.38,796.098,373.023 C793.74,372.499,789.941,371.582,784.702,370.272 C783.261,369.879,781.82,369.486,780.38,369.093 C770.949,366.736,760.994,363.461,750.515,359.269 C735.059,352.72,722.354,344.468,712.399,334.514 C700.873,322.987,695.109,307.793,695.109,288.931 C695.109,262.997,705.064,241.908,724.974,225.666 C738.596,214.14,757.719,206.805,782.344,203.661 C786.536,203.137,790.138,204.316,793.15,207.198 C796.163,210.079,797.669,213.485,797.669,217.414 C797.669,226.845,797.669,236.276,797.669,245.707 C797.669,249.112,796.621,252.125,794.526,254.745 C792.43,257.364,789.745,258.871,786.47,259.264 C783.196,259.656,779.856,260.377,776.45,261.425 C768.853,264.306,763.483,267.123,760.339,269.873 C757.195,272.624,754.969,275.44,753.659,278.322 C752.349,282.775,751.694,286.967,751.694,290.896 C751.694,292.992,752.873,295.219,755.231,297.576 C758.898,301.244,764.269,304.518,771.342,307.4 C774.485,308.71,779.987,310.675,787.846,313.294 C804.219,317.355,820.591,321.415,836.964,325.476 C837.75,325.738,838.536,326,839.322,326.262 C851.635,329.667,860.541,332.287,866.043,334.121 C878.355,338.312,889.096,343.42,898.265,349.446 z M832.642,260.639 C829.498,259.853,826.944,258.216,824.979,255.727 C823.015,253.238,822.032,250.291,822.032,246.886 C822.032,237.324,822.032,227.762,822.032,218.2 C822.032,214.009,823.735,210.472,827.141,207.591 C828.45,206.281,830.153,205.429,832.249,205.037 C834.345,204.644,836.31,204.578,838.143,204.84 C861.196,208.508,879.927,216.367,894.335,228.417 C913.983,244.659,924.461,265.354,925.771,290.503 C926.033,294.171,924.789,297.511,922.038,300.523 C919.288,303.536,915.947,305.042,912.018,305.042 C901.801,305.042,891.584,305.042,881.368,305.042 C877.962,305.042,874.95,303.864,872.33,301.506 C869.71,299.148,868.269,296.266,868.007,292.861 C866.96,286.05,864.733,280.417,861.327,275.964 C855.826,269.415,847.312,264.438,835.786,261.032 C835,261.032,834.476,260.901,834.214,260.639 C833.69,260.639,833.166,260.639,832.642,260.639 z M786.667,441.003 C789.81,441.527,792.43,443.099,794.526,445.719 C796.621,448.338,797.669,451.22,797.669,454.364 C797.669,464.056,797.669,473.749,797.669,483.442 C797.669,487.633,796.097,491.17,792.954,494.052 C790.334,496.147,787.322,497.195,783.916,497.195 C783.261,497.195,782.606,497.195,781.951,497.195 C757.588,493.528,737.548,485.538,721.83,473.225 C701.396,456.983,689.87,434.323,687.25,405.245 C686.726,401.053,687.905,397.451,690.787,394.439 C693.668,391.426,697.074,389.92,701.003,389.92 C711.351,389.92,721.699,389.92,732.047,389.92 C735.714,389.92,738.858,391.164,741.477,393.653 C744.097,396.141,745.538,399.219,745.8,402.887 C746.586,415.985,753.004,426.071,765.054,433.144 C770.556,436.288,777.76,438.908,786.667,441.003 z M1021.65,203.661 C1025.32,203.661,1028.53,205.037,1031.28,207.787 C1034.03,210.538,1035.4,213.747,1035.4,217.414 C1035.4,304.388,1035.4,391.36,1035.4,478.333 C1035.4,482.001,1034.03,485.21,1031.28,487.961 C1028.53,490.711,1025.32,492.087,1021.65,492.087 C1011.83,492.087,1002,492.087,992.18,492.087 C988.512,492.087,985.303,490.711,982.553,487.961 C979.802,485.21,978.427,482.001,978.427,478.333 C978.427,391.36,978.427,304.387,978.427,217.414 C978.427,213.747,979.802,210.538,982.553,207.787 C985.303,205.037,988.512,203.661,992.18,203.661 C1002,203.661,1011.83,203.661,1021.65,203.661 z M1366.66,203.661 C1370.33,203.661,1373.54,205.037,1376.29,207.787 C1379.04,210.538,1380.41,213.747,1380.41,217.414 C1380.41,304.388,1380.41,391.36,1380.41,478.333 C1380.41,482.001,1379.04,485.21,1376.29,487.961 C1373.54,490.711,1370.33,492.087,1366.66,492.087 C1356.84,492.087,1347.01,492.087,1337.19,492.087 C1333.52,492.087,1330.31,490.711,1327.56,487.961 C1324.81,485.21,1323.44,482.001,1323.44,478.333 C1323.44,419.653,1323.44,360.972,1323.44,302.292 C1299.34,333.204,1275.23,364.116,1251.13,395.028 C1248.51,398.434,1244.98,400.136,1240.52,400.136 C1240.52,400.136,1240.52,400.136,1240.52,400.136 C1236.07,400.136,1232.53,398.434,1229.91,395.028 C1205.29,363.985,1180.66,332.942,1156.04,301.899 C1156.04,360.71,1156.04,419.522,1156.04,478.333 C1156.04,482.001,1154.66,485.21,1151.91,487.961 C1149.16,490.711,1145.95,492.087,1142.29,492.087 C1132.46,492.087,1122.64,492.087,1112.82,492.087 C1109.15,492.087,1105.94,490.711,1103.19,487.961 C1100.44,485.21,1099.06,482.001,1099.06,478.333 C1099.06,391.36,1099.06,304.387,1099.06,217.414 C1099.06,213.747,1100.44,210.538,1103.19,207.787 C1105.94,205.037,1109.15,203.661,1112.82,203.661 C1124.21,203.661,1135.61,203.661,1147,203.661 C1151.46,203.661,1155.12,205.495,1158,209.163 C1185.51,245.576,1213.02,281.989,1240.52,318.403 C1267.51,281.989,1294.49,245.576,1321.47,209.163 C1322.52,207.329,1324.09,205.953,1326.19,205.037 C1328.28,204.12,1330.38,203.661,1332.47,203.661 C1343.87,203.661,1355.27,203.661,1366.66,203.661 z M1575.32,203.661 C1606.23,203.661,1631.18,212.503,1650.18,230.185 C1669.17,247.868,1678.66,271.576,1678.66,301.309 C1678.66,331.043,1669.3,354.751,1650.57,372.433 C1631.84,390.116,1606.75,398.958,1575.32,398.958 C1550.56,398.958,1525.81,398.958,1501.05,398.958 C1501.05,425.416,1501.05,451.875,1501.05,478.333 C1501.05,482.001,1499.68,485.21,1496.92,487.961 C1494.17,490.711,1490.96,492.087,1487.3,492.087 C1477.47,492.087,1467.65,492.087,1457.83,492.087 C1454.16,492.087,1450.95,490.711,1448.2,487.961 C1445.45,485.21,1444.07,482.001,1444.07,478.333 C1444.07,391.36,1444.07,304.387,1444.07,217.414 C1444.07,213.747,1445.45,210.538,1448.2,207.787 C1450.95,205.037,1454.16,203.661,1457.83,203.661 C1496.99,203.661,1536.15,203.661,1575.32,203.661 z M1501.05,259.067 C1501.05,287.36,1501.05,315.652,1501.05,343.944 C1525.15,343.944,1549.25,343.944,1573.35,343.944 C1590.38,343.944,1602.69,340.277,1610.29,332.942 C1617.89,325.607,1621.69,315.063,1621.69,301.309 C1621.69,287.556,1617.89,277.274,1610.29,270.463 C1602.17,262.866,1589.86,259.067,1573.35,259.067 C1549.25,259.067,1525.15,259.067,1501.05,259.067 z M1904.22,436.288 C1908.15,436.288,1911.42,437.663,1914.04,440.414 C1916.66,443.164,1917.97,446.374,1917.97,450.041 C1917.97,459.472,1917.97,468.903,1917.97,478.333 C1917.97,482.001,1916.66,485.21,1914.04,487.961 C1911.42,490.711,1908.15,492.087,1904.22,492.087 C1846.98,492.087,1789.74,492.087,1732.5,492.087 C1728.83,492.087,1725.62,490.711,1722.87,487.961 C1720.12,485.21,1718.75,482.001,1718.75,478.333 C1718.75,391.36,1718.75,304.387,1718.75,217.414 C1718.75,213.747,1720.12,210.538,1722.87,207.787 C1725.62,205.037,1728.83,203.661,1732.5,203.661 C1742.32,203.661,1752.15,203.661,1761.97,203.661 C1765.64,203.661,1768.85,205.037,1771.6,207.787 C1774.35,210.538,1775.72,213.747,1775.72,217.414 C1775.72,290.372,1775.72,363.33,1775.72,436.288 C1818.55,436.288,1861.39,436.288,1904.22,436.288 z M2161.6,203.661 C2165.53,203.661,2168.8,205.037,2171.42,207.787 C2174.04,210.538,2175.35,213.747,2175.35,217.414 C2175.35,226.845,2175.35,236.276,2175.35,245.707 C2175.35,249.374,2174.04,252.583,2171.42,255.334 C2168.8,258.085,2165.53,259.46,2161.6,259.46 C2112.09,259.46,2062.58,259.46,2013.06,259.46 C2013.06,279.501,2013.06,299.541,2013.06,319.582 C2056.81,319.582,2100.56,319.582,2144.31,319.582 C2148.24,319.582,2151.51,320.957,2154.13,323.708 C2156.75,326.458,2158.06,329.667,2158.06,333.335 C2158.06,342.897,2158.06,352.458,2158.06,362.02 C2158.06,365.688,2156.75,368.897,2154.13,371.647 C2151.51,374.398,2148.24,375.773,2144.31,375.773 C2100.56,375.773,2056.81,375.773,2013.06,375.773 C2013.06,395.945,2013.06,416.116,2013.06,436.288 C2062.58,436.288,2112.09,436.288,2161.6,436.288 C2165.53,436.288,2168.8,437.663,2171.42,440.414 C2174.04,443.164,2175.35,446.374,2175.35,450.041 C2175.35,459.472,2175.35,468.903,2175.35,478.333 C2175.35,482.001,2174.04,485.21,2171.42,487.961 C2168.8,490.711,2165.53,492.087,2161.6,492.087 C2097.68,492.087,2033.76,492.087,1969.84,492.087 C1966.17,492.087,1962.96,490.711,1960.21,487.961 C1957.46,485.21,1956.09,482.001,1956.09,478.333 C1956.09,391.36,1956.09,304.387,1956.09,217.414 C1956.09,213.747,1957.46,210.538,1960.21,207.787 C1962.96,205.037,1966.17,203.661,1969.84,203.661 C2033.76,203.661,2097.68,203.661,2161.6,203.661 z M2266.52,320.367 C2270.45,320.367,2273.72,321.743,2276.34,324.493 C2278.96,327.244,2280.27,330.584,2280.27,334.514 C2280.27,383.502,2280.27,432.489,2280.27,481.477 C2280.27,485.145,2278.96,488.354,2276.34,491.104 C2273.72,493.855,2270.45,495.23,2266.52,495.23 C2256.56,495.23,2246.61,495.23,2236.65,495.23 C2232.99,495.23,2229.78,493.855,2227.03,491.104 C2224.28,488.354,2222.9,485.145,2222.9,481.477 C2222.9,432.489,2222.9,383.501,2222.9,334.514 C2222.9,330.584,2224.28,327.244,2227.03,324.493 C2229.78,321.743,2232.99,320.367,2236.65,320.367 C2246.61,320.367,2256.56,320.367,2266.52,320.367 z M2266.52,203.661 C2270.45,203.661,2273.72,205.037,2276.34,207.787 C2278.96,210.538,2280.27,213.747,2280.27,217.414 C2280.27,241.646,2280.27,265.878,2280.27,290.11 C2280.27,294.04,2278.96,297.38,2276.34,300.13 C2273.72,302.881,2270.45,304.257,2266.52,304.256 C2256.56,304.256,2246.61,304.256,2236.65,304.256 C2232.99,304.256,2229.78,302.881,2227.03,300.13 C2224.28,297.38,2222.9,294.04,2222.9,290.11 C2222.9,265.878,2222.9,241.646,2222.9,217.414 C2222.9,213.747,2224.28,210.538,2227.03,207.787 C2229.78,205.037,2232.99,203.661,2236.65,203.661 C2246.61,203.661,2256.56,203.661,2266.52,203.661 z M2519.58,213.878 C2535.56,219.903,2549.97,229.596,2562.8,242.956 C2590.31,270.725,2604.06,306.156,2604.06,349.249 C2604.06,392.343,2590.31,427.905,2562.8,455.935 C2549.97,469.296,2535.56,478.988,2519.58,485.014 C2503.07,491.825,2486.18,495.23,2468.89,495.23 C2431.82,495.23,2394.75,495.23,2357.68,495.23 C2354.01,495.23,2350.81,493.855,2348.05,491.104 C2345.3,488.354,2343.93,485.145,2343.93,481.477 C2343.93,472.046,2343.93,462.616,2343.93,453.185 C2343.93,449.255,2345.3,445.915,2348.05,443.164 C2350.81,440.414,2354.01,439.039,2357.68,439.039 C2394.36,439.039,2431.03,439.039,2467.71,439.039 C2491.02,439.039,2509.95,430.525,2524.49,413.497 C2539.03,396.469,2546.3,375.119,2546.3,349.446 C2546.3,323.773,2539.03,302.423,2524.49,285.395 C2509.95,268.367,2491.02,259.853,2467.71,259.853 C2431.03,259.853,2394.36,259.853,2357.68,259.853 C2354.01,259.853,2350.81,258.478,2348.05,255.727 C2345.3,252.977,2343.93,249.636,2343.93,245.707 C2343.93,236.276,2343.93,226.845,2343.93,217.414 C2343.93,213.747,2345.3,210.538,2348.05,207.787 C2350.81,205.037,2354.01,203.661,2357.68,203.661 C2394.75,203.661,2431.82,203.661,2468.89,203.661 C2486.18,203.661,2503.07,207.067,2519.58,213.878 z"/>
              </defs>
              <use xlink:href="#6" style="fill:#000000;fill-opacity:1;fill-rule:evenodd;opacity:1;stroke:none;"/>
            </g>
          </defs>
          <use xlink:href="#5"/>
        </g>
      </g>
    </g>
    <g id="7">
      <title>Group</title>
      <defs>
        <title>CompoundGroup</title>
        <g id="8">
          <defs>
            <path id="9" d="M51.7969,350.957 C146.078,256.676,240.359,162.395,334.64,68.1144 C428.921,162.395,523.201,256.676,617.482,350.957 C523.201,445.238,428.921,539.519,334.64,633.8 C240.359,539.519,146.078,445.238,51.7969,350.957 z M369.995,350.957 C399.458,321.494,428.92,292.032,458.383,262.569 C487.846,292.032,517.309,321.494,546.772,350.957 C517.309,380.42,487.846,409.883,458.383,439.345 C428.921,409.883,399.458,380.42,369.995,350.957 z M243.726,472.175 C273.189,442.713,302.651,413.25,332.114,383.787 C361.577,413.25,391.04,442.713,420.503,472.176 C391.04,501.638,361.577,531.101,332.114,560.564 C302.651,531.101,273.189,501.638,243.726,472.175 z M246.251,227.213 C275.714,197.751,305.177,168.288,334.64,138.825 C364.102,168.288,393.565,197.751,423.028,227.213 C393.565,256.676,364.102,286.139,334.64,315.602 C305.177,286.139,275.714,256.676,246.251,227.213 z M122.508,350.957 C151.97,321.494,181.433,292.032,210.896,262.569 C240.359,292.032,269.821,321.494,299.284,350.957 C269.821,380.42,240.359,409.883,210.896,439.346 C181.433,409.883,151.97,380.42,122.508,350.957 z"/>
          </defs>
          <use xlink:href="#9" style="fill:#000000;fill-opacity:1;fill-rule:evenodd;opacity:1;stroke:none;"/>
        </g>
      </defs>
      <use xlink:href="#8"/>
    </g>
  </g>
</svg>
