<?xml version="1.0" encoding="UTF-8"?>
<svg xmlns="http://www.w3.org/2000/svg" xmlns:xlink="http://www.w3.org/1999/xlink" width="50pt" height="50pt" viewBox="0 0 50 50" version="1.1">
<g id="surface21698885">
<path style=" stroke:none;fill-rule:nonzero;fill:rgb(16.078431%,49.411765%,89.803922%);fill-opacity:1;" d="M 25 1 C 24.671875 1 24.394531 1.167969 24.210938 1.414062 C 24.195312 1.433594 24.171875 1.441406 24.15625 1.464844 L 10.15625 23.464844 C 10.140625 23.488281 10.136719 23.523438 10.121094 23.550781 C 10.089844 23.613281 10.070312 23.675781 10.050781 23.742188 C 10.035156 23.800781 10.019531 23.859375 10.015625 23.917969 C 10.011719 23.988281 10.015625 24.054688 10.023438 24.121094 C 10.03125 24.160156 10.019531 24.203125 10.027344 24.238281 C 10.035156 24.265625 10.054688 24.289062 10.066406 24.3125 C 10.074219 24.339844 10.070312 24.367188 10.082031 24.394531 C 10.097656 24.433594 10.128906 24.457031 10.152344 24.492188 C 10.183594 24.550781 10.21875 24.605469 10.261719 24.652344 C 10.308594 24.707031 10.363281 24.753906 10.421875 24.792969 C 10.449219 24.816406 10.472656 24.851562 10.503906 24.867188 L 24.503906 32.867188 C 24.527344 32.882812 24.550781 32.886719 24.574219 32.898438 C 24.601562 32.910156 24.628906 32.921875 24.65625 32.929688 C 24.765625 32.972656 24.882812 33 25 33 C 25.117188 33 25.234375 32.972656 25.34375 32.929688 C 25.371094 32.921875 25.398438 32.910156 25.425781 32.894531 C 25.449219 32.886719 25.472656 32.878906 25.496094 32.867188 L 39.496094 24.867188 C 39.503906 24.863281 39.503906 24.855469 39.511719 24.851562 C 39.613281 24.792969 39.703125 24.714844 39.78125 24.617188 C 39.796875 24.597656 39.808594 24.570312 39.828125 24.542969 C 39.859375 24.496094 39.894531 24.449219 39.921875 24.394531 C 39.929688 24.367188 39.925781 24.339844 39.9375 24.3125 C 39.945312 24.289062 39.964844 24.265625 39.972656 24.238281 C 39.980469 24.203125 39.972656 24.160156 39.976562 24.121094 C 39.984375 24.054688 39.992188 23.988281 39.984375 23.917969 C 39.980469 23.855469 39.964844 23.800781 39.949219 23.738281 C 39.929688 23.671875 39.910156 23.609375 39.878906 23.546875 C 39.863281 23.519531 39.859375 23.488281 39.84375 23.464844 L 25.84375 1.464844 C 25.832031 1.441406 25.804688 1.433594 25.789062 1.414062 C 25.605469 1.167969 25.328125 1 25 1 Z M 25 3.5625 L 25 19 L 36.761719 24.128906 L 25 31 L 25 19 L 12.5625 23.3125 Z M 10.839844 28.011719 C 10.621094 28.050781 10.410156 28.160156 10.253906 28.335938 C 9.941406 28.6875 9.914062 29.214844 10.195312 29.59375 L 24.195312 48.59375 C 24.207031 48.609375 24.230469 48.617188 24.242188 48.632812 C 24.308594 48.714844 24.390625 48.777344 24.476562 48.832031 C 24.511719 48.855469 24.539062 48.882812 24.574219 48.898438 C 24.707031 48.960938 24.847656 49 25 49 C 25.152344 49 25.292969 48.960938 25.425781 48.898438 C 25.460938 48.882812 25.488281 48.851562 25.523438 48.832031 C 25.609375 48.777344 25.691406 48.714844 25.757812 48.632812 C 25.769531 48.617188 25.792969 48.609375 25.804688 48.59375 L 39.804688 29.59375 C 40.085938 29.214844 40.0625 28.6875 39.746094 28.335938 C 39.433594 27.980469 38.914062 27.898438 38.503906 28.132812 L 25 35.851562 L 11.496094 28.132812 C 11.292969 28.015625 11.058594 27.976562 10.839844 28.015625 Z M 14.613281 32.214844 L 25 38.3125 L 25 46.128906 Z M 14.613281 32.214844 "/>
</g>
</svg>
